PathFileType	4	(X/Y/Z)	C:/Users/opensim2020/Desktop/walking_exp_matlab/subject01_walking04_straight_01.trc																																																																																																																															
DataRate	CameraRate	NumFrames	NumMarkers	Units	OrigDataRate	OrigDataStartFrame	OrigNumFrames																																																																																																																											
100	100	4	43	mm	100	839	216																																																																																																																											
Frame#	Time	LFHD			RFHD			LBHD			RBHD			C7			T10			CLAV			STRN			RBAK			LSHO			LUPA			LELB			LFRM			LWRA			LWRB			LFIN			RSHO			RUPA			RELB			RFRM			RWRA			RWRB			RFIN			LASI			RASI			LPSI			RPSI			LTHI			LKNE			LTIB			LANK			LHEE			LTOE			RTHI			RKNE			RTIB			RANK			RHEE			RTOE			*39			*40			*41			*42		
		X1	Y1	Z1	X2	Y2	Z2	X3	Y3	Z3	X4	Y4	Z4	X5	Y5	Z5	X6	Y6	Z6	X7	Y7	Z7	X8	Y8	Z8	X9	Y9	Z9	X10	Y10	Z10	X11	Y11	Z11	X12	Y12	Z12	X13	Y13	Z13	X14	Y14	Z14	X15	Y15	Z15	X16	Y16	Z16	X17	Y17	Z17	X18	Y18	Z18	X19	Y19	Z19	X20	Y20	Z20	X21	Y21	Z21	X22	Y22	Z22	X23	Y23	Z23	X24	Y24	Z24	X25	Y25	Z25	X26	Y26	Z26	X27	Y27	Z27	X28	Y28	Z28	X29	Y29	Z29	X30	Y30	Z30	X31	Y31	Z31	X32	Y32	Z32	X33	Y33	Z33	X34	Y34	Z34	X35	Y35	Z35	X36	Y36	Z36	X37	Y37	Z37	X38	Y38	Z38	X39	Y39	Z39	X40	Y40	Z40	X41	Y41	Z41	X42	Y42	Z42	X43	Y43	Z43
																																																																																																																																		
28	0.27	-753.39996	1666.96094	-1133.66858	-747.13159	1677.828	-1019.26099	-861.51581	1602.54626	-1130.53943	-857.81146	1611.37866	-1009.88623	-882.08655	1425.92822	-1076.94385	-921.75543	1134.92871	-1049.12952	-737.44849	1358.31116	-1074.86877	-696.81824	1202.14624	-1076.87915	-934.86029	1235.81824	-987.91187	-802.05383	1378.55725	-1235.76941	-808.29108	1194.28271	-1321.52612	-785.65375	1043.50403	-1328.94043	-702.36163	964.06366	-1357.36499	-576.82715	904.51819	-1349.18201	-623.58533	871.2644	-1366.2749	-549.62543	835.17181	-1383.7522	-796.49475	1393.81738	-922.66937	-876.99011	1205.91589	-817.83032	-892.65594	1082.33606	-812.02039	-884.07422	963.9718	-775.08606	-819.41766	836.31287	-784.46478	-866.77679	844.73639	-749.52325	-841.15613	761.83679	-747.99451	-762.97015	923.42645	-1165.17151	-740.34045	930.85596	-949.15808	-941.75134	941.16479	-1090.56604	-924.79547	940.93079	-946.63116	-857.68311	599.76892	-1210.65576	-899.00659	469.11749	-1195.11914	-990.74524	301.10013	-1194.19409	-1051.24292	87.01791	-1136.77722	-1092.70557	68.1623	-1078.80701	-911.09137	27.91765	-1153.90381	-726.25677	602.68115	-877.50586	-667.82349	458.23938	-911.02228	-662.12408	285.78696	-901.45911	-608.31494	83.15372	-946.55865	-636.97052	29.88374	-1000.53992	-464.8765	87.70174	-942.0072	-763.97357	1707.9801	-1043.70972	1973.19482	1023.33905	-3101.85449	2012.55969	1022.07935	-3140.5791	NaN	NaN	NaN
29	0.28	-744.09955	1666.39355	-1132.13525	-737.90332	1676.98865	-1017.67328	-852.45203	1602.16382	-1128.87988	-848.46149	1610.76868	-1008.20361	-873.40192	1425.31592	-1075.5437	-912.67151	1134.07288	-1048.11755	-728.59894	1357.58508	-1073.78687	-687.89392	1201.52344	-1076.16418	-925.86285	1234.73206	-986.98022	-793.44318	1378.24609	-1234.54602	-799.49152	1194.10413	-1320.55676	-776.64264	1043.3302	-1328.39868	-692.67603	964.53107	-1356.8573	-566.54651	906.01392	-1348.49561	-613.27856	872.19263	-1365.42456	-539.03857	836.91467	-1383.26233	-787.84723	1392.55371	-921.47003	-868.28516	1204.61218	-816.91345	-883.96686	1081.03162	-811.38074	-875.49109	962.59515	-774.63788	-810.66376	835.01953	-783.99963	-856.97565	843.23975	-749.28601	-832.13654	760.47113	-747.89252	-754.13757	922.84998	-1165.16284	-730.6557	929.65759	-949.06946	-932.57526	940.71936	-1089.70642	-915.08246	940.04352	-945.78583	-851.56396	599.94849	-1211.27368	-893.56598	469.57202	-1195.46558	-987.35669	302.57159	-1194.69275	-1050.30823	88.96782	-1137.62415	-1092.15503	70.89661	-1079.64221	-910.96954	27.81031	-1154.00696	-718.21002	601.33722	-877.50745	-659.07758	457.71228	-911.38422	-650.17004	285.64548	-901.02545	-593.0683	83.66927	-945.69653	-621.4411	29.82984	-999.32526	-449.29791	90.2871	-942.24701	-754.46729	1707.0343	-1042.25635	1973.03442	1023.31	-3101.96069	2012.52246	1021.97284	-3140.74829	NaN	NaN	NaN
30	0.29	-734.82031	1665.7644	-1130.41809	-728.28381	1676.32275	-1015.85156	-843.36591	1601.83362	-1127.12048	-839.26685	1610.35547	-1006.39294	-864.94312	1424.69299	-1074.05835	-903.39655	1133.13672	-1047.07312	-719.70605	1356.90393	-1072.80579	-678.82452	1200.90161	-1075.28174	-916.81793	1233.58911	-986.04102	-784.78955	1377.93115	-1233.24194	-790.70166	1193.94177	-1319.46997	-767.73962	1043.22888	-1327.74292	-683.24579	964.85815	-1355.93652	-556.89545	907.36786	-1347.7854	-603.29315	873.23602	-1364.72949	-528.76721	838.32819	-1382.42737	-778.84369	1391.69666	-920.05927	-859.27435	1203.26306	-815.90875	-875.06653	1079.69446	-810.60596	-866.56384	961.1535	-774.04114	-801.56964	833.66364	-783.52039	-848.40845	841.84058	-748.70428	-823.09558	759.0705	-747.5661	-745.10736	922.2674	-1165.04138	-720.83484	928.44281	-948.81995	-923.26105	940.28735	-1088.71082	-905.38275	939.28864	-944.8772	-845.08112	600.16473	-1211.74341	-887.96942	469.99887	-1196.02893	-983.69012	304.1886	-1195.37512	-1049.30298	91.06544	-1138.43616	-1091.34985	73.70556	-1080.58594	-910.8656	27.86555	-1154.30371	-709.35248	600.31958	-877.51184	-649.75647	456.89969	-911.56439	-639.29584	285.2428	-901.15442	-578.84015	83.19998	-945.28101	-606.96741	29.56422	-998.54407	-435.54025	91.67802	-941.93018	-744.9856	1706.3302	-1040.42163	1973.11108	1023.32153	-3101.83521	2012.53418	1021.95471	-3140.59717	NaN	NaN	NaN
31	0.3	-725.4856	1665.12695	-1128.52209	-718.91693	1675.34497	-1014.0658	-834.22083	1601.51038	-1125.23938	-829.96277	1609.84924	-1004.45782	-855.51385	1423.69482	-1072.47461	-894.06201	1132.25647	-1045.91235	-710.60626	1356.26135	-1071.63916	-669.60999	1200.34802	-1074.35083	-907.64539	1232.45056	-984.98682	-776.07776	1377.52051	-1231.77075	-782.01459	1193.77588	-1318.22998	-758.91199	1043.11377	-1326.96558	-673.93652	965.12885	-1355.02197	-547.34564	908.25861	-1346.79175	-593.42731	873.86121	-1363.8606	-518.80408	839.53552	-1381.6156	-769.94019	1390.33435	-918.58685	-850.26318	1201.92517	-814.77545	-865.99127	1078.3075	-809.65497	-857.75323	959.82446	-773.37354	-792.16711	832.29993	-782.95776	-838.77704	840.36737	-748.25848	-813.52802	757.534	-747.1922	-735.88232	921.71826	-1164.76196	-710.99438	927.33429	-948.5116	-913.81213	939.85669	-1087.73267	-895.55157	938.45837	-943.91425	-838.26691	600.36322	-1212.13574	-882.0578	470.43253	-1196.44812	-979.84186	305.85812	-1195.80176	-1048.12854	93.33008	-1139.29846	-1090.53284	76.76989	-1081.47437	-910.75861	27.83569	-1154.39185	-699.4859	599.23206	-877.69122	-640.28168	456.29086	-911.7713	-628.57739	284.28696	-900.98016	-567.26318	83.06326	-944.96008	-594.06744	28.78712	-998.56781	-423.40503	92.08752	-941.14465	-735.49664	1705.78992	-1038.33374	1973.11658	1023.40173	-3101.95679	2012.52234	1022.04193	-3140.65186	NaN	NaN	NaN
